<?xml version="1.0" encoding="UTF-8"?>
<svg id="Laag_1" data-name="Laag 1" xmlns="http://www.w3.org/2000/svg" viewBox="0 0 951.51 357.3">
  <defs>
    <style>
      .cls-1 {
        fill: #fff;
        stroke-width: 0px;
      }
    </style>
  </defs>
  <path class="cls-1" d="m178.65,0C79.99,0,0,79.98,0,178.65s79.98,178.65,178.65,178.65,178.65-79.98,178.65-178.65S277.31,0,178.65,0Zm.05,284.96c-10.81.8-21.56-4.94-26.54-15.25l-45.4-91.48-10.31,15.87-15.76,24.7c-7.93,11.6-23.14,15.23-36.46,10.39-2.7-.98-7.38-2.73-12.08-8.36-2.55-3.05-3.66-8.71-.27-14.32.08-.13,4.79-7.54,4.79-7.54l19.31-29.8,33.3-51.59c2.75-4.02,6.38-7.06,10.5-9.15.07-.04.13-.09.2-.13h.03c7.71-3.81,17.11-4.24,25.72-1.11,2.7.98,7.38,2.73,12.08,8.36.64.77,1.2,1.71,1.61,2.77l39.16,81.17,60.06-110.17c7.15-13.11,23.73-17.99,36.84-10.84h0c13.11,7.15,17.99,23.73,10.84,36.84l-84.8,155.55c-4.73,8.65-13.58,13.71-22.82,14.09Zm110.29-48.63c-15.34,0-27.78-12.44-27.78-27.78s12.44-27.78,27.78-27.78,27.78,12.44,27.78,27.78-12.44,27.78-27.78,27.78Z"/>
  <g>
    <path class="cls-1" d="m463.07,236.71c0-.63.56-1.19,1.19-1.19h4.13c.69,0,1.19.56,1.19,1.19v17.45h22.9v-17.45c0-.63.5-1.19,1.19-1.19h4.13c.63,0,1.19.56,1.19,1.19v41.42c0,.63-.56,1.19-1.19,1.19h-4.13c-.69,0-1.19-.56-1.19-1.19v-18.08h-22.9v18.08c0,.63-.5,1.19-1.19,1.19h-4.13c-.63,0-1.19-.56-1.19-1.19v-41.42Z"/>
    <path class="cls-1" d="m536.64,234.89c12.51,0,22.52,10.07,22.52,22.58s-10.01,22.46-22.52,22.46-22.46-9.95-22.46-22.46,9.95-22.58,22.46-22.58Zm0,38.79c8.95,0,16.27-7.26,16.27-16.2s-7.32-16.33-16.27-16.33-16.2,7.44-16.2,16.33,7.32,16.2,16.2,16.2Z"/>
    <path class="cls-1" d="m593.7,234.89c6.01,0,10.95,2.19,15.2,5.82.5.5.56,1.25.06,1.75-.94,1-1.88,1.94-2.81,2.94-.5.56-1,.5-1.63-.06-2.94-2.56-6.82-4.25-10.63-4.25-8.88,0-15.7,7.51-15.7,16.27s6.82,16.2,15.7,16.2c5.19,0,8.76-1.88,9.38-2.13v-7.01h-6.13c-.69,0-1.19-.5-1.19-1.13v-3.63c0-.69.5-1.19,1.19-1.19h11.39c.63,0,1.13.56,1.13,1.19,0,5,.06,10.13.06,15.14,0,.31-.25.81-.5,1,0,0-6.44,4.13-15.51,4.13-12.45,0-22.52-9.95-22.52-22.46s10.06-22.58,22.51-22.58Z"/>
    <path class="cls-1" d="m625.8,236.71c0-.63.5-1.19,1.19-1.19h25.02c.69,0,1.19.56,1.19,1.19v3.5c0,.63-.5,1.19-1.19,1.19h-19.77v12.76h16.7c.63,0,1.19.56,1.19,1.19v3.5c0,.69-.56,1.19-1.19,1.19h-16.7v13.45h19.77c.69,0,1.19.56,1.19,1.19v3.44c0,.63-.5,1.19-1.19,1.19h-25.02c-.69,0-1.19-.56-1.19-1.19v-41.41Z"/>
    <path class="cls-1" d="m666.09,272.99c.56-.81,1.06-1.75,1.63-2.56.56-.81,1.44-1.06,2.13-.5.38.31,5.19,4.32,10.01,4.32,4.32,0,7.07-2.63,7.07-5.82,0-3.75-3.25-6.13-9.45-8.7-6.38-2.69-11.39-6.01-11.39-13.26,0-4.88,3.75-11.57,13.7-11.57,6.26,0,10.95,3.25,11.57,3.69.5.31,1,1.19.38,2.13-.5.75-1.06,1.63-1.56,2.38-.5.81-1.31,1.19-2.19.63-.44-.25-4.82-3.13-8.45-3.13-5.26,0-7.07,3.32-7.07,5.63,0,3.57,2.75,5.76,7.95,7.88,7.26,2.94,13.45,6.38,13.45,14.01,0,6.51-5.82,11.82-13.95,11.82-7.63,0-12.45-4-13.45-4.94-.57-.5-1-.94-.38-2.01Z"/>
    <path class="cls-1" d="m728.15,234.89c6.32,0,10.89,2.13,15.14,5.82.56.5.56,1.25.06,1.75l-2.75,2.82c-.44.56-1,.56-1.56,0-2.94-2.56-6.94-4.19-10.82-4.19-8.95,0-15.7,7.51-15.7,16.27s6.82,16.2,15.77,16.2c4.57,0,7.76-1.81,10.76-4.13.56-.44,1.13-.38,1.5-.06l2.88,2.82c.5.44.38,1.25-.06,1.69-4.25,4.13-9.63,6.07-15.2,6.07-12.51,0-22.58-9.95-22.58-22.46s10.05-22.6,22.56-22.6Z"/>
    <path class="cls-1" d="m758.56,236.71c0-.63.56-1.19,1.19-1.19h4.13c.69,0,1.19.56,1.19,1.19v17.45h22.9v-17.45c0-.63.5-1.19,1.19-1.19h4.13c.62,0,1.19.56,1.19,1.19v41.42c0,.63-.56,1.19-1.19,1.19h-4.13c-.69,0-1.19-.56-1.19-1.19v-18.08h-22.9v18.08c0,.63-.5,1.19-1.19,1.19h-4.13c-.62,0-1.19-.56-1.19-1.19v-41.42Z"/>
    <path class="cls-1" d="m832.14,234.89c12.51,0,22.52,10.07,22.52,22.58s-10.01,22.46-22.52,22.46-22.46-9.95-22.46-22.46,9.94-22.58,22.46-22.58Zm0,38.79c8.95,0,16.27-7.26,16.27-16.2s-7.32-16.33-16.27-16.33-16.2,7.44-16.2,16.33c-.01,8.95,7.31,16.2,16.2,16.2Z"/>
    <path class="cls-1" d="m889.13,234.89c12.51,0,22.52,10.07,22.52,22.58s-10.01,22.46-22.52,22.46-22.46-9.95-22.46-22.46,9.95-22.58,22.46-22.58Zm0,38.79c8.95,0,16.27-7.26,16.27-16.2s-7.32-16.33-16.27-16.33-16.2,7.44-16.2,16.33,7.32,16.2,16.2,16.2Z"/>
    <path class="cls-1" d="m926.86,236.71c0-.63.5-1.19,1.19-1.19h4.13c.63,0,1.19.56,1.19,1.19v36.79h16.95c.69,0,1.19.56,1.19,1.19v3.44c0,.63-.5,1.19-1.19,1.19h-22.27c-.69,0-1.19-.56-1.19-1.19v-41.42Z"/>
  </g>
  <g>
    <path class="cls-1" d="m462.17,83.05c0-1.83,1.64-3.29,3.47-3.29h4.56l72.86,70.12h.18v-64.82c0-1.83,1.46-3.47,3.47-3.47h21.91c1.83,0,3.47,1.64,3.47,3.47v122.89c0,1.83-1.64,3.29-3.47,3.29h-2.92c-.55,0-2.01-.55-2.37-.91l-72.13-72.49h-.18v68.11c0,1.83-1.46,3.47-3.47,3.47h-21.73c-1.83,0-3.47-1.64-3.47-3.47l-.18-122.9Z"/>
    <path class="cls-1" d="m678,79.77c36.52,0,65.74,29.4,65.74,65.92s-29.22,65.55-65.74,65.55-65.55-29.03-65.55-65.55,29.03-65.92,65.55-65.92Zm0,102.25c20.09,0,36.52-16.43,36.52-36.34s-16.43-36.7-36.52-36.7-36.34,16.62-36.34,36.7c.01,19.91,16.44,36.34,36.34,36.34Z"/>
    <path class="cls-1" d="m766.56,86.34c-1.1-2.37.37-4.75,3.1-4.75h24.29c1.46,0,2.74,1.1,3.1,2.01l30.13,66.65h1.1l30.13-66.65c.37-.91,1.64-2.01,3.1-2.01h24.29c2.74,0,4.2,2.37,3.1,4.75l-57.34,122.89c-.55,1.1-1.64,2.01-3.1,2.01h-1.83c-1.46,0-2.56-.91-3.1-2.01l-56.97-122.89Z"/>
    <path class="cls-1" d="m922.13,85.06c0-1.83,1.64-3.47,3.47-3.47h21.91c1.83,0,3.47,1.64,3.47,3.47v120.88c0,1.83-1.64,3.47-3.47,3.47h-21.91c-1.83,0-3.47-1.64-3.47-3.47v-120.88Z"/>
  </g>
</svg>